<mxfile host="app.diagrams.net" agent="Mozilla/5.0 (Macintosh; Intel Mac OS X 10_15_7) AppleWebKit/605.1.15 (KHTML, like Gecko) Version/18.3 Safari/605.1.15" version="26.0.14">
  <diagram name="Page-1" id="rdk-TwhZW33GwNK-k4qF">
    <mxGraphModel dx="2219" dy="1013" grid="1" gridSize="10" guides="1" tooltips="1" connect="1" arrows="1" fold="1" page="1" pageScale="1" pageWidth="850" pageHeight="1100" math="0" shadow="0">
      <root>
        <mxCell id="0" />
        <mxCell id="1" parent="0" />
        <mxCell id="aSSjuln2oJBjr3djgboS-37" value="" style="group" vertex="1" connectable="0" parent="1">
          <mxGeometry x="425" y="80" width="900" height="860" as="geometry" />
        </mxCell>
        <mxCell id="aSSjuln2oJBjr3djgboS-9" value="" style="group" vertex="1" connectable="0" parent="aSSjuln2oJBjr3djgboS-37">
          <mxGeometry x="3" width="430" height="420" as="geometry" />
        </mxCell>
        <mxCell id="aSSjuln2oJBjr3djgboS-1" value="&lt;p style=&quot;text-align: start;&quot; class=&quot;p1&quot;&gt;&lt;b&gt;Cluster&lt;/b&gt;&lt;/p&gt;" style="rounded=1;whiteSpace=wrap;html=1;verticalAlign=top;" vertex="1" parent="aSSjuln2oJBjr3djgboS-9">
          <mxGeometry width="430" height="420" as="geometry" />
        </mxCell>
        <mxCell id="aSSjuln2oJBjr3djgboS-2" value="&lt;p style=&quot;text-align: start;&quot; class=&quot;p1&quot;&gt;&lt;b&gt;Master Node&lt;/b&gt;&lt;/p&gt;" style="rounded=1;whiteSpace=wrap;html=1;" vertex="1" parent="aSSjuln2oJBjr3djgboS-9">
          <mxGeometry x="140" y="50" width="150" height="80" as="geometry" />
        </mxCell>
        <mxCell id="aSSjuln2oJBjr3djgboS-3" value="&lt;p style=&quot;text-align: start;&quot; class=&quot;p1&quot;&gt;&lt;b&gt;Worker Node 1&lt;/b&gt;&lt;/p&gt;" style="rounded=1;whiteSpace=wrap;html=1;verticalAlign=middle;" vertex="1" parent="aSSjuln2oJBjr3djgboS-9">
          <mxGeometry x="40" y="150" width="150" height="80" as="geometry" />
        </mxCell>
        <mxCell id="aSSjuln2oJBjr3djgboS-4" value="&lt;p style=&quot;text-align: start;&quot; class=&quot;p1&quot;&gt;&lt;b&gt;Worker Node 2&lt;/b&gt;&lt;/p&gt;" style="rounded=1;whiteSpace=wrap;html=1;" vertex="1" parent="aSSjuln2oJBjr3djgboS-9">
          <mxGeometry x="240" y="150" width="150" height="80" as="geometry" />
        </mxCell>
        <mxCell id="aSSjuln2oJBjr3djgboS-5" value="&lt;p style=&quot;text-align: start;&quot; class=&quot;p1&quot;&gt;&lt;b&gt;Pod 1&lt;/b&gt;&lt;/p&gt;" style="rounded=1;whiteSpace=wrap;html=1;" vertex="1" parent="aSSjuln2oJBjr3djgboS-9">
          <mxGeometry x="50" y="247" width="120" height="60" as="geometry" />
        </mxCell>
        <mxCell id="aSSjuln2oJBjr3djgboS-6" value="&lt;p style=&quot;text-align: start;&quot; class=&quot;p1&quot;&gt;&lt;b&gt;Pod 2&lt;/b&gt;&lt;/p&gt;" style="rounded=1;whiteSpace=wrap;html=1;" vertex="1" parent="aSSjuln2oJBjr3djgboS-9">
          <mxGeometry x="245" y="247" width="120" height="60" as="geometry" />
        </mxCell>
        <mxCell id="aSSjuln2oJBjr3djgboS-7" value="&lt;p style=&quot;text-align: start;&quot; class=&quot;p1&quot;&gt;&lt;b&gt;Container 1&lt;/b&gt;&lt;/p&gt;" style="rounded=1;whiteSpace=wrap;html=1;" vertex="1" parent="aSSjuln2oJBjr3djgboS-9">
          <mxGeometry x="60" y="320" width="100" height="50" as="geometry" />
        </mxCell>
        <mxCell id="aSSjuln2oJBjr3djgboS-8" value="&lt;p style=&quot;text-align: start;&quot; class=&quot;p1&quot;&gt;&lt;b&gt;Container 2&lt;/b&gt;&lt;/p&gt;" style="rounded=1;whiteSpace=wrap;html=1;" vertex="1" parent="aSSjuln2oJBjr3djgboS-9">
          <mxGeometry x="255" y="320" width="100" height="50" as="geometry" />
        </mxCell>
        <mxCell id="aSSjuln2oJBjr3djgboS-10" value="" style="group" vertex="1" connectable="0" parent="aSSjuln2oJBjr3djgboS-37">
          <mxGeometry x="470" y="10" width="430" height="420" as="geometry" />
        </mxCell>
        <mxCell id="aSSjuln2oJBjr3djgboS-11" value="&lt;p style=&quot;text-align: start;&quot; class=&quot;p1&quot;&gt;&lt;b&gt;Cluster&lt;/b&gt;&lt;/p&gt;" style="rounded=1;whiteSpace=wrap;html=1;verticalAlign=top;" vertex="1" parent="aSSjuln2oJBjr3djgboS-10">
          <mxGeometry width="430" height="420" as="geometry" />
        </mxCell>
        <mxCell id="aSSjuln2oJBjr3djgboS-12" value="&lt;p style=&quot;text-align: start;&quot; class=&quot;p1&quot;&gt;&lt;b&gt;Master Node&lt;/b&gt;&lt;/p&gt;" style="rounded=1;whiteSpace=wrap;html=1;" vertex="1" parent="aSSjuln2oJBjr3djgboS-10">
          <mxGeometry x="140" y="50" width="150" height="80" as="geometry" />
        </mxCell>
        <mxCell id="aSSjuln2oJBjr3djgboS-13" value="&lt;p style=&quot;text-align: start;&quot; class=&quot;p1&quot;&gt;&lt;b&gt;Worker Node 1&lt;/b&gt;&lt;/p&gt;" style="rounded=1;whiteSpace=wrap;html=1;verticalAlign=middle;" vertex="1" parent="aSSjuln2oJBjr3djgboS-10">
          <mxGeometry x="40" y="150" width="150" height="80" as="geometry" />
        </mxCell>
        <mxCell id="aSSjuln2oJBjr3djgboS-14" value="&lt;p style=&quot;text-align: start;&quot; class=&quot;p1&quot;&gt;&lt;b&gt;Worker Node 2&lt;/b&gt;&lt;/p&gt;" style="rounded=1;whiteSpace=wrap;html=1;" vertex="1" parent="aSSjuln2oJBjr3djgboS-10">
          <mxGeometry x="240" y="150" width="150" height="80" as="geometry" />
        </mxCell>
        <mxCell id="aSSjuln2oJBjr3djgboS-15" value="&lt;p style=&quot;text-align: start;&quot; class=&quot;p1&quot;&gt;&lt;b&gt;Pod 1&lt;/b&gt;&lt;/p&gt;" style="rounded=1;whiteSpace=wrap;html=1;" vertex="1" parent="aSSjuln2oJBjr3djgboS-10">
          <mxGeometry x="50" y="247" width="120" height="60" as="geometry" />
        </mxCell>
        <mxCell id="aSSjuln2oJBjr3djgboS-16" value="&lt;p style=&quot;text-align: start;&quot; class=&quot;p1&quot;&gt;&lt;b&gt;Pod 2&lt;/b&gt;&lt;/p&gt;" style="rounded=1;whiteSpace=wrap;html=1;" vertex="1" parent="aSSjuln2oJBjr3djgboS-10">
          <mxGeometry x="245" y="247" width="120" height="60" as="geometry" />
        </mxCell>
        <mxCell id="aSSjuln2oJBjr3djgboS-17" value="&lt;p style=&quot;text-align: start;&quot; class=&quot;p1&quot;&gt;&lt;b&gt;Container 1&lt;/b&gt;&lt;/p&gt;" style="rounded=1;whiteSpace=wrap;html=1;" vertex="1" parent="aSSjuln2oJBjr3djgboS-10">
          <mxGeometry x="60" y="320" width="100" height="50" as="geometry" />
        </mxCell>
        <mxCell id="aSSjuln2oJBjr3djgboS-18" value="&lt;p style=&quot;text-align: start;&quot; class=&quot;p1&quot;&gt;&lt;b&gt;Container 2&lt;/b&gt;&lt;/p&gt;" style="rounded=1;whiteSpace=wrap;html=1;" vertex="1" parent="aSSjuln2oJBjr3djgboS-10">
          <mxGeometry x="255" y="320" width="100" height="50" as="geometry" />
        </mxCell>
        <mxCell id="aSSjuln2oJBjr3djgboS-19" value="" style="group" vertex="1" connectable="0" parent="aSSjuln2oJBjr3djgboS-37">
          <mxGeometry y="440" width="430" height="420" as="geometry" />
        </mxCell>
        <mxCell id="aSSjuln2oJBjr3djgboS-20" value="&lt;p style=&quot;text-align: start;&quot; class=&quot;p1&quot;&gt;&lt;b&gt;Cluster&lt;/b&gt;&lt;/p&gt;" style="rounded=1;whiteSpace=wrap;html=1;verticalAlign=top;" vertex="1" parent="aSSjuln2oJBjr3djgboS-19">
          <mxGeometry width="430" height="420" as="geometry" />
        </mxCell>
        <mxCell id="aSSjuln2oJBjr3djgboS-21" value="&lt;p style=&quot;text-align: start;&quot; class=&quot;p1&quot;&gt;&lt;b&gt;Master Node&lt;/b&gt;&lt;/p&gt;" style="rounded=1;whiteSpace=wrap;html=1;" vertex="1" parent="aSSjuln2oJBjr3djgboS-19">
          <mxGeometry x="140" y="50" width="150" height="80" as="geometry" />
        </mxCell>
        <mxCell id="aSSjuln2oJBjr3djgboS-22" value="&lt;p style=&quot;text-align: start;&quot; class=&quot;p1&quot;&gt;&lt;b&gt;Worker Node 1&lt;/b&gt;&lt;/p&gt;" style="rounded=1;whiteSpace=wrap;html=1;verticalAlign=middle;" vertex="1" parent="aSSjuln2oJBjr3djgboS-19">
          <mxGeometry x="40" y="150" width="150" height="80" as="geometry" />
        </mxCell>
        <mxCell id="aSSjuln2oJBjr3djgboS-23" value="&lt;p style=&quot;text-align: start;&quot; class=&quot;p1&quot;&gt;&lt;b&gt;Worker Node 2&lt;/b&gt;&lt;/p&gt;" style="rounded=1;whiteSpace=wrap;html=1;" vertex="1" parent="aSSjuln2oJBjr3djgboS-19">
          <mxGeometry x="240" y="150" width="150" height="80" as="geometry" />
        </mxCell>
        <mxCell id="aSSjuln2oJBjr3djgboS-24" value="&lt;p style=&quot;text-align: start;&quot; class=&quot;p1&quot;&gt;&lt;b&gt;Pod 1&lt;/b&gt;&lt;/p&gt;" style="rounded=1;whiteSpace=wrap;html=1;" vertex="1" parent="aSSjuln2oJBjr3djgboS-19">
          <mxGeometry x="50" y="247" width="120" height="60" as="geometry" />
        </mxCell>
        <mxCell id="aSSjuln2oJBjr3djgboS-25" value="&lt;p style=&quot;text-align: start;&quot; class=&quot;p1&quot;&gt;&lt;b&gt;Pod 2&lt;/b&gt;&lt;/p&gt;" style="rounded=1;whiteSpace=wrap;html=1;" vertex="1" parent="aSSjuln2oJBjr3djgboS-19">
          <mxGeometry x="245" y="247" width="120" height="60" as="geometry" />
        </mxCell>
        <mxCell id="aSSjuln2oJBjr3djgboS-26" value="&lt;p style=&quot;text-align: start;&quot; class=&quot;p1&quot;&gt;&lt;b&gt;Container 1&lt;/b&gt;&lt;/p&gt;" style="rounded=1;whiteSpace=wrap;html=1;" vertex="1" parent="aSSjuln2oJBjr3djgboS-19">
          <mxGeometry x="60" y="320" width="100" height="50" as="geometry" />
        </mxCell>
        <mxCell id="aSSjuln2oJBjr3djgboS-27" value="&lt;p style=&quot;text-align: start;&quot; class=&quot;p1&quot;&gt;&lt;b&gt;Container 2&lt;/b&gt;&lt;/p&gt;" style="rounded=1;whiteSpace=wrap;html=1;" vertex="1" parent="aSSjuln2oJBjr3djgboS-19">
          <mxGeometry x="255" y="320" width="100" height="50" as="geometry" />
        </mxCell>
        <mxCell id="aSSjuln2oJBjr3djgboS-28" value="" style="group" vertex="1" connectable="0" parent="aSSjuln2oJBjr3djgboS-37">
          <mxGeometry x="460" y="440" width="430" height="420" as="geometry" />
        </mxCell>
        <mxCell id="aSSjuln2oJBjr3djgboS-29" value="&lt;p style=&quot;text-align: start;&quot; class=&quot;p1&quot;&gt;&lt;b&gt;Cluster&lt;/b&gt;&lt;/p&gt;" style="rounded=1;whiteSpace=wrap;html=1;verticalAlign=top;" vertex="1" parent="aSSjuln2oJBjr3djgboS-28">
          <mxGeometry width="430" height="420" as="geometry" />
        </mxCell>
        <mxCell id="aSSjuln2oJBjr3djgboS-30" value="&lt;p style=&quot;text-align: start;&quot; class=&quot;p1&quot;&gt;&lt;b&gt;Master Node&lt;/b&gt;&lt;/p&gt;" style="rounded=1;whiteSpace=wrap;html=1;" vertex="1" parent="aSSjuln2oJBjr3djgboS-28">
          <mxGeometry x="140" y="50" width="150" height="80" as="geometry" />
        </mxCell>
        <mxCell id="aSSjuln2oJBjr3djgboS-31" value="&lt;p style=&quot;text-align: start;&quot; class=&quot;p1&quot;&gt;&lt;b&gt;Worker Node 1&lt;/b&gt;&lt;/p&gt;" style="rounded=1;whiteSpace=wrap;html=1;verticalAlign=middle;" vertex="1" parent="aSSjuln2oJBjr3djgboS-28">
          <mxGeometry x="40" y="150" width="150" height="80" as="geometry" />
        </mxCell>
        <mxCell id="aSSjuln2oJBjr3djgboS-32" value="&lt;p style=&quot;text-align: start;&quot; class=&quot;p1&quot;&gt;&lt;b&gt;Worker Node 2&lt;/b&gt;&lt;/p&gt;" style="rounded=1;whiteSpace=wrap;html=1;" vertex="1" parent="aSSjuln2oJBjr3djgboS-28">
          <mxGeometry x="240" y="150" width="150" height="80" as="geometry" />
        </mxCell>
        <mxCell id="aSSjuln2oJBjr3djgboS-33" value="&lt;p style=&quot;text-align: start;&quot; class=&quot;p1&quot;&gt;&lt;b&gt;Pod 1&lt;/b&gt;&lt;/p&gt;" style="rounded=1;whiteSpace=wrap;html=1;" vertex="1" parent="aSSjuln2oJBjr3djgboS-28">
          <mxGeometry x="50" y="247" width="120" height="60" as="geometry" />
        </mxCell>
        <mxCell id="aSSjuln2oJBjr3djgboS-34" value="&lt;p style=&quot;text-align: start;&quot; class=&quot;p1&quot;&gt;&lt;b&gt;Pod 2&lt;/b&gt;&lt;/p&gt;" style="rounded=1;whiteSpace=wrap;html=1;" vertex="1" parent="aSSjuln2oJBjr3djgboS-28">
          <mxGeometry x="245" y="247" width="120" height="60" as="geometry" />
        </mxCell>
        <mxCell id="aSSjuln2oJBjr3djgboS-35" value="&lt;p style=&quot;text-align: start;&quot; class=&quot;p1&quot;&gt;&lt;b&gt;Container 1&lt;/b&gt;&lt;/p&gt;" style="rounded=1;whiteSpace=wrap;html=1;" vertex="1" parent="aSSjuln2oJBjr3djgboS-28">
          <mxGeometry x="60" y="320" width="100" height="50" as="geometry" />
        </mxCell>
        <mxCell id="aSSjuln2oJBjr3djgboS-36" value="&lt;p style=&quot;text-align: start;&quot; class=&quot;p1&quot;&gt;&lt;b&gt;Container 2&lt;/b&gt;&lt;/p&gt;" style="rounded=1;whiteSpace=wrap;html=1;" vertex="1" parent="aSSjuln2oJBjr3djgboS-28">
          <mxGeometry x="255" y="320" width="100" height="50" as="geometry" />
        </mxCell>
      </root>
    </mxGraphModel>
  </diagram>
</mxfile>
